M48
; DRILL file {KiCad (6.0.8)} date Wed Jan 25 20:10:40 2023
; FORMAT={-:-/ absolute / inch / decimal}
; #@! TF.CreationDate,2023-01-25T20:10:40-08:00
; #@! TF.GenerationSoftware,Kicad,Pcbnew,(6.0.8)
; #@! TF.FileFunction,Plated,1,2,PTH
FMAT,2
INCH
; #@! TA.AperFunction,Plated,PTH,ViaDrill
T1C0.0118
; #@! TA.AperFunction,Plated,PTH,ComponentDrill
T2C0.0295
; #@! TA.AperFunction,Plated,PTH,ComponentDrill
T3C0.0409
; #@! TA.AperFunction,Plated,PTH,ComponentDrill
T4C0.0433
; #@! TA.AperFunction,Plated,PTH,ComponentDrill
T5C0.1260
%
G90
G05
T1
X5.59Y-3.62
X5.6Y-3.42
X5.69Y-3.62
X5.7188Y-3.43
X5.8346Y-3.8111
X5.85Y-3.77
X5.9075Y-3.94
X5.92Y-3.84
X5.98Y-4.63
X5.99Y-3.77
X5.99Y-3.91
X6.17Y-4.69
X6.5045Y-4.6305
X6.69Y-4.69
X6.83Y-4.69
X6.95Y-4.42
X7.03Y-4.63
X7.05Y-4.7
X7.16Y-4.79
X7.24Y-4.72
T2
X5.9013Y-3.26
X5.98Y-3.26
T3
X5.498Y-3.48
X5.498Y-4.48
X5.598Y-3.48
X5.598Y-4.48
X5.698Y-3.48
X5.698Y-4.48
X5.798Y-3.48
X5.798Y-4.48
X5.898Y-3.48
X5.898Y-4.48
X5.998Y-3.48
X5.998Y-4.48
X6.098Y-3.48
X6.098Y-4.48
X6.198Y-3.48
X6.198Y-4.48
X6.298Y-3.48
X6.298Y-4.48
X6.398Y-3.48
X6.398Y-4.48
X6.498Y-3.48
X6.498Y-4.48
X6.598Y-3.48
X6.598Y-4.48
X6.698Y-3.48
X6.698Y-4.48
X6.798Y-3.48
X6.798Y-4.48
X6.898Y-3.48
X6.898Y-4.48
X6.998Y-3.48
X6.998Y-4.48
X7.098Y-3.48
X7.098Y-4.48
X7.198Y-3.48
X7.198Y-4.48
X7.298Y-3.48
X7.298Y-4.48
T4
X6.1889Y-3.15
X6.2889Y-3.15
T5
X5.6Y-3.16
X5.6Y-4.3
X7.1931Y-3.16
X7.2Y-4.3
T0
M30
