%TF.GenerationSoftware,KiCad,Pcbnew,(6.0.8)*%
%TF.CreationDate,2023-01-25T20:09:53-08:00*%
%TF.ProjectId,GN-ESSP32,474e2d45-5353-4503-9332-2e6b69636164,rev?*%
%TF.SameCoordinates,Original*%
%TF.FileFunction,Soldermask,Bot*%
%TF.FilePolarity,Negative*%
%FSLAX46Y46*%
G04 Gerber Fmt 4.6, Leading zero omitted, Abs format (unit mm)*
G04 Created by KiCad (PCBNEW (6.0.8)) date 2023-01-25 20:09:53*
%MOMM*%
%LPD*%
G01*
G04 APERTURE LIST*
G04 Aperture macros list*
%AMRoundRect*
0 Rectangle with rounded corners*
0 $1 Rounding radius*
0 $2 $3 $4 $5 $6 $7 $8 $9 X,Y pos of 4 corners*
0 Add a 4 corners polygon primitive as box body*
4,1,4,$2,$3,$4,$5,$6,$7,$8,$9,$2,$3,0*
0 Add four circle primitives for the rounded corners*
1,1,$1+$1,$2,$3*
1,1,$1+$1,$4,$5*
1,1,$1+$1,$6,$7*
1,1,$1+$1,$8,$9*
0 Add four rect primitives between the rounded corners*
20,1,$1+$1,$2,$3,$4,$5,0*
20,1,$1+$1,$4,$5,$6,$7,0*
20,1,$1+$1,$6,$7,$8,$9,0*
20,1,$1+$1,$8,$9,$2,$3,0*%
G04 Aperture macros list end*
%ADD10RoundRect,0.250000X0.350000X0.625000X-0.350000X0.625000X-0.350000X-0.625000X0.350000X-0.625000X0*%
%ADD11O,1.200000X1.750000*%
%ADD12R,1.560000X1.560000*%
%ADD13C,1.560000*%
%ADD14R,2.100000X2.100000*%
%ADD15C,2.100000*%
%ADD16C,3.600000*%
%ADD17C,5.600000*%
%ADD18C,0.900000*%
G04 APERTURE END LIST*
D10*
%TO.C,J5*%
X151892000Y-82804000D03*
D11*
X149892000Y-82804000D03*
%TD*%
D12*
%TO.C,U4*%
X185368000Y-88392000D03*
D13*
X182828000Y-88392000D03*
X180288000Y-88392000D03*
X177748000Y-88392000D03*
X175208000Y-88392000D03*
X172668000Y-88392000D03*
X170128000Y-88392000D03*
X167588000Y-88392000D03*
X165048000Y-88392000D03*
X162508000Y-88392000D03*
X159968000Y-88392000D03*
X157428000Y-88392000D03*
X154888000Y-88392000D03*
X152348000Y-88392000D03*
X149808000Y-88392000D03*
X147268000Y-88392000D03*
X144728000Y-88392000D03*
X142188000Y-88392000D03*
X139648000Y-88392000D03*
X185368000Y-113792000D03*
X182828000Y-113792000D03*
X180288000Y-113792000D03*
X177748000Y-113792000D03*
X175208000Y-113792000D03*
X172668000Y-113792000D03*
X170128000Y-113792000D03*
X167588000Y-113792000D03*
X165048000Y-113792000D03*
X162508000Y-113792000D03*
X159968000Y-113792000D03*
X157428000Y-113792000D03*
X154888000Y-113792000D03*
X152348000Y-113792000D03*
X149808000Y-113792000D03*
X147268000Y-113792000D03*
X144728000Y-113792000D03*
X142188000Y-113792000D03*
X139648000Y-113792000D03*
%TD*%
D14*
%TO.C,J4*%
X159737596Y-80010000D03*
D15*
X157197596Y-80010000D03*
%TD*%
D16*
%TO.C,H2*%
X182880000Y-109220000D03*
D17*
X182880000Y-109220000D03*
%TD*%
%TO.C,H1*%
X182705682Y-80264000D03*
D16*
X182705682Y-80264000D03*
%TD*%
D18*
%TO.C,SW1*%
X165603596Y-78070024D03*
X168603596Y-78070024D03*
%TD*%
D17*
%TO.C,H3*%
X142240000Y-109220000D03*
D16*
X142240000Y-109220000D03*
%TD*%
D17*
%TO.C,H4*%
X142240000Y-80264000D03*
D16*
X142240000Y-80264000D03*
%TD*%
M02*
