%TF.GenerationSoftware,KiCad,Pcbnew,(6.0.8)*%
%TF.CreationDate,2023-01-25T20:09:53-08:00*%
%TF.ProjectId,GN-ESSP32,474e2d45-5353-4503-9332-2e6b69636164,rev?*%
%TF.SameCoordinates,Original*%
%TF.FileFunction,Paste,Top*%
%TF.FilePolarity,Positive*%
%FSLAX46Y46*%
G04 Gerber Fmt 4.6, Leading zero omitted, Abs format (unit mm)*
G04 Created by KiCad (PCBNEW (6.0.8)) date 2023-01-25 20:09:53*
%MOMM*%
%LPD*%
G01*
G04 APERTURE LIST*
G04 Aperture macros list*
%AMRoundRect*
0 Rectangle with rounded corners*
0 $1 Rounding radius*
0 $2 $3 $4 $5 $6 $7 $8 $9 X,Y pos of 4 corners*
0 Add a 4 corners polygon primitive as box body*
4,1,4,$2,$3,$4,$5,$6,$7,$8,$9,$2,$3,0*
0 Add four circle primitives for the rounded corners*
1,1,$1+$1,$2,$3*
1,1,$1+$1,$4,$5*
1,1,$1+$1,$6,$7*
1,1,$1+$1,$8,$9*
0 Add four rect primitives between the rounded corners*
20,1,$1+$1,$2,$3,$4,$5,0*
20,1,$1+$1,$4,$5,$6,$7,0*
20,1,$1+$1,$6,$7,$8,$9,0*
20,1,$1+$1,$8,$9,$2,$3,0*%
G04 Aperture macros list end*
%ADD10RoundRect,0.200000X-0.200000X-0.275000X0.200000X-0.275000X0.200000X0.275000X-0.200000X0.275000X0*%
%ADD11RoundRect,0.250000X0.475000X-0.250000X0.475000X0.250000X-0.475000X0.250000X-0.475000X-0.250000X0*%
%ADD12RoundRect,0.200000X0.200000X0.275000X-0.200000X0.275000X-0.200000X-0.275000X0.200000X-0.275000X0*%
%ADD13RoundRect,0.200000X0.275000X-0.200000X0.275000X0.200000X-0.275000X0.200000X-0.275000X-0.200000X0*%
%ADD14RoundRect,0.243750X-0.243750X-0.456250X0.243750X-0.456250X0.243750X0.456250X-0.243750X0.456250X0*%
%ADD15R,2.000000X1.500000*%
%ADD16R,2.000000X3.800000*%
%ADD17RoundRect,0.250000X-0.250000X-0.475000X0.250000X-0.475000X0.250000X0.475000X-0.250000X0.475000X0*%
%ADD18R,0.900000X1.200000*%
%ADD19RoundRect,0.250000X-0.250000X-1.500000X0.250000X-1.500000X0.250000X1.500000X-0.250000X1.500000X0*%
%ADD20RoundRect,0.250001X-0.499999X-1.449999X0.499999X-1.449999X0.499999X1.449999X-0.499999X1.449999X0*%
%ADD21R,1.000000X0.800000*%
%ADD22R,0.700000X1.500000*%
%ADD23RoundRect,0.200000X-0.275000X0.200000X-0.275000X-0.200000X0.275000X-0.200000X0.275000X0.200000X0*%
%ADD24RoundRect,0.225000X-0.225000X-0.250000X0.225000X-0.250000X0.225000X0.250000X-0.225000X0.250000X0*%
%ADD25RoundRect,0.160000X-0.160000X0.160000X-0.160000X-0.160000X0.160000X-0.160000X0.160000X0.160000X0*%
%ADD26RoundRect,0.062500X-0.062500X0.375000X-0.062500X-0.375000X0.062500X-0.375000X0.062500X0.375000X0*%
%ADD27RoundRect,0.062500X-0.375000X0.062500X-0.375000X-0.062500X0.375000X-0.062500X0.375000X0.062500X0*%
%ADD28RoundRect,0.243750X-0.456250X0.243750X-0.456250X-0.243750X0.456250X-0.243750X0.456250X0.243750X0*%
%ADD29RoundRect,0.100000X-0.100000X0.175000X-0.100000X-0.175000X0.100000X-0.175000X0.100000X0.175000X0*%
%ADD30RoundRect,0.100000X-0.175000X0.100000X-0.175000X-0.100000X0.175000X-0.100000X0.175000X0.100000X0*%
G04 APERTURE END LIST*
D10*
%TO.C,R8*%
X145733000Y-97282000D03*
X147383000Y-97282000D03*
%TD*%
%TO.C,R1*%
X170879000Y-112014000D03*
X172529000Y-112014000D03*
%TD*%
D11*
%TO.C,C3*%
X150368000Y-94422000D03*
X150368000Y-92522000D03*
%TD*%
D12*
%TO.C,R10*%
X176085000Y-78740000D03*
X174435000Y-78740000D03*
%TD*%
D13*
%TO.C,R6*%
X148336000Y-94551000D03*
X148336000Y-92901000D03*
%TD*%
D10*
%TO.C,R5*%
X153353000Y-97536000D03*
X155003000Y-97536000D03*
%TD*%
D14*
%TO.C,D3*%
X143067054Y-84503666D03*
X144942054Y-84503666D03*
%TD*%
D15*
%TO.C,U3*%
X165506000Y-94474000D03*
X165506000Y-96774000D03*
D16*
X171806000Y-96774000D03*
D15*
X165506000Y-99074000D03*
%TD*%
D17*
%TO.C,C1*%
X153448336Y-99573820D03*
X155348336Y-99573820D03*
%TD*%
D10*
%TO.C,R7*%
X145733000Y-98806000D03*
X147383000Y-98806000D03*
%TD*%
D18*
%TO.C,D1*%
X155830000Y-84774016D03*
X159130000Y-84774016D03*
%TD*%
D13*
%TO.C,R9*%
X152400000Y-94551000D03*
X152400000Y-92901000D03*
%TD*%
D10*
%TO.C,R2*%
X178499000Y-112014000D03*
X180149000Y-112014000D03*
%TD*%
D11*
%TO.C,C5*%
X163068000Y-95946000D03*
X163068000Y-94046000D03*
%TD*%
D19*
%TO.C,J2*%
X158163000Y-119070000D03*
X160163000Y-119070000D03*
X162163000Y-119070000D03*
X164163000Y-119070000D03*
D20*
X155813000Y-124820000D03*
X166513000Y-124820000D03*
%TD*%
D21*
%TO.C,SW1*%
X163453596Y-79180024D03*
X170753596Y-79180024D03*
X163453596Y-76970024D03*
X170753596Y-76970024D03*
D22*
X169353596Y-79830024D03*
X166353596Y-79830024D03*
X164853596Y-79830024D03*
%TD*%
D19*
%TO.C,J1*%
X171498000Y-119070000D03*
X173498000Y-119070000D03*
X175498000Y-119070000D03*
X177498000Y-119070000D03*
D20*
X179848000Y-124820000D03*
X169148000Y-124820000D03*
%TD*%
D23*
%TO.C,R3*%
X151130000Y-100521000D03*
X151130000Y-102171000D03*
%TD*%
D24*
%TO.C,C6*%
X182867898Y-123965712D03*
X184417898Y-123965712D03*
%TD*%
D25*
%TO.C,U2*%
X149968000Y-97136000D03*
X149968000Y-97936000D03*
X150768000Y-97136000D03*
X150768000Y-97936000D03*
D26*
X151118000Y-96098500D03*
X150618000Y-96098500D03*
X150118000Y-96098500D03*
X149618000Y-96098500D03*
D27*
X148930500Y-96786000D03*
X148930500Y-97286000D03*
X148930500Y-97786000D03*
X148930500Y-98286000D03*
D26*
X149618000Y-98973500D03*
X150118000Y-98973500D03*
X150618000Y-98973500D03*
X151118000Y-98973500D03*
D27*
X151805500Y-98286000D03*
X151805500Y-97786000D03*
X151805500Y-97286000D03*
X151805500Y-96786000D03*
%TD*%
D28*
%TO.C,D4*%
X172691596Y-77241524D03*
X172691596Y-79116524D03*
%TD*%
D14*
%TO.C,D2*%
X139511054Y-84503666D03*
X141386054Y-84503666D03*
%TD*%
D19*
%TO.C,J3*%
X144828000Y-119070000D03*
X146828000Y-119070000D03*
X148828000Y-119070000D03*
X150828000Y-119070000D03*
D20*
X153178000Y-124820000D03*
X142478000Y-124820000D03*
%TD*%
D11*
%TO.C,C4*%
X163068000Y-99502000D03*
X163068000Y-97602000D03*
%TD*%
D29*
%TO.C,U1*%
X183942000Y-120741000D03*
X183342000Y-120741000D03*
D30*
X182717000Y-121066000D03*
X182717000Y-121666000D03*
X182717000Y-122266000D03*
D29*
X183342000Y-122591000D03*
X183942000Y-122591000D03*
D30*
X184567000Y-122266000D03*
X184567000Y-121666000D03*
X184567000Y-121066000D03*
%TD*%
D10*
%TO.C,R4*%
X153353000Y-96012000D03*
X155003000Y-96012000D03*
%TD*%
M02*
