%TF.GenerationSoftware,KiCad,Pcbnew,(6.0.8)*%
%TF.CreationDate,2023-01-25T20:09:53-08:00*%
%TF.ProjectId,GN-ESSP32,474e2d45-5353-4503-9332-2e6b69636164,rev?*%
%TF.SameCoordinates,Original*%
%TF.FileFunction,Soldermask,Top*%
%TF.FilePolarity,Negative*%
%FSLAX46Y46*%
G04 Gerber Fmt 4.6, Leading zero omitted, Abs format (unit mm)*
G04 Created by KiCad (PCBNEW (6.0.8)) date 2023-01-25 20:09:53*
%MOMM*%
%LPD*%
G01*
G04 APERTURE LIST*
G04 Aperture macros list*
%AMRoundRect*
0 Rectangle with rounded corners*
0 $1 Rounding radius*
0 $2 $3 $4 $5 $6 $7 $8 $9 X,Y pos of 4 corners*
0 Add a 4 corners polygon primitive as box body*
4,1,4,$2,$3,$4,$5,$6,$7,$8,$9,$2,$3,0*
0 Add four circle primitives for the rounded corners*
1,1,$1+$1,$2,$3*
1,1,$1+$1,$4,$5*
1,1,$1+$1,$6,$7*
1,1,$1+$1,$8,$9*
0 Add four rect primitives between the rounded corners*
20,1,$1+$1,$2,$3,$4,$5,0*
20,1,$1+$1,$4,$5,$6,$7,0*
20,1,$1+$1,$6,$7,$8,$9,0*
20,1,$1+$1,$8,$9,$2,$3,0*%
G04 Aperture macros list end*
%ADD10RoundRect,0.250000X0.350000X0.625000X-0.350000X0.625000X-0.350000X-0.625000X0.350000X-0.625000X0*%
%ADD11O,1.200000X1.750000*%
%ADD12C,1.000000*%
%ADD13RoundRect,0.200000X-0.200000X-0.275000X0.200000X-0.275000X0.200000X0.275000X-0.200000X0.275000X0*%
%ADD14RoundRect,0.250000X0.475000X-0.250000X0.475000X0.250000X-0.475000X0.250000X-0.475000X-0.250000X0*%
%ADD15R,1.560000X1.560000*%
%ADD16C,1.560000*%
%ADD17RoundRect,0.200000X0.200000X0.275000X-0.200000X0.275000X-0.200000X-0.275000X0.200000X-0.275000X0*%
%ADD18R,2.100000X2.100000*%
%ADD19C,2.100000*%
%ADD20C,3.600000*%
%ADD21C,5.600000*%
%ADD22RoundRect,0.200000X0.275000X-0.200000X0.275000X0.200000X-0.275000X0.200000X-0.275000X-0.200000X0*%
%ADD23RoundRect,0.243750X-0.243750X-0.456250X0.243750X-0.456250X0.243750X0.456250X-0.243750X0.456250X0*%
%ADD24R,2.000000X1.500000*%
%ADD25R,2.000000X3.800000*%
%ADD26RoundRect,0.250000X-0.250000X-0.475000X0.250000X-0.475000X0.250000X0.475000X-0.250000X0.475000X0*%
%ADD27R,0.900000X1.200000*%
%ADD28RoundRect,0.250000X-0.250000X-1.500000X0.250000X-1.500000X0.250000X1.500000X-0.250000X1.500000X0*%
%ADD29RoundRect,0.250001X-0.499999X-1.449999X0.499999X-1.449999X0.499999X1.449999X-0.499999X1.449999X0*%
%ADD30R,1.000000X0.800000*%
%ADD31C,0.900000*%
%ADD32R,0.700000X1.500000*%
%ADD33RoundRect,0.200000X-0.275000X0.200000X-0.275000X-0.200000X0.275000X-0.200000X0.275000X0.200000X0*%
%ADD34RoundRect,0.225000X-0.225000X-0.250000X0.225000X-0.250000X0.225000X0.250000X-0.225000X0.250000X0*%
%ADD35RoundRect,0.062500X-0.062500X0.375000X-0.062500X-0.375000X0.062500X-0.375000X0.062500X0.375000X0*%
%ADD36RoundRect,0.062500X-0.375000X0.062500X-0.375000X-0.062500X0.375000X-0.062500X0.375000X0.062500X0*%
%ADD37R,1.600000X1.600000*%
%ADD38RoundRect,0.243750X-0.456250X0.243750X-0.456250X-0.243750X0.456250X-0.243750X0.456250X0.243750X0*%
%ADD39RoundRect,0.100000X-0.100000X0.175000X-0.100000X-0.175000X0.100000X-0.175000X0.100000X0.175000X0*%
%ADD40RoundRect,0.100000X-0.175000X0.100000X-0.175000X-0.100000X0.175000X-0.100000X0.175000X0.100000X0*%
G04 APERTURE END LIST*
D10*
%TO.C,J5*%
X151892000Y-82804000D03*
D11*
X149892000Y-82804000D03*
%TD*%
D12*
%TO.C,TP1*%
X161036000Y-84836000D03*
%TD*%
D13*
%TO.C,R8*%
X145733000Y-97282000D03*
X147383000Y-97282000D03*
%TD*%
%TO.C,R1*%
X170879000Y-112014000D03*
X172529000Y-112014000D03*
%TD*%
D14*
%TO.C,C3*%
X150368000Y-94422000D03*
X150368000Y-92522000D03*
%TD*%
D15*
%TO.C,U4*%
X185368000Y-88392000D03*
D16*
X182828000Y-88392000D03*
X180288000Y-88392000D03*
X177748000Y-88392000D03*
X175208000Y-88392000D03*
X172668000Y-88392000D03*
X170128000Y-88392000D03*
X167588000Y-88392000D03*
X165048000Y-88392000D03*
X162508000Y-88392000D03*
X159968000Y-88392000D03*
X157428000Y-88392000D03*
X154888000Y-88392000D03*
X152348000Y-88392000D03*
X149808000Y-88392000D03*
X147268000Y-88392000D03*
X144728000Y-88392000D03*
X142188000Y-88392000D03*
X139648000Y-88392000D03*
X185368000Y-113792000D03*
X182828000Y-113792000D03*
X180288000Y-113792000D03*
X177748000Y-113792000D03*
X175208000Y-113792000D03*
X172668000Y-113792000D03*
X170128000Y-113792000D03*
X167588000Y-113792000D03*
X165048000Y-113792000D03*
X162508000Y-113792000D03*
X159968000Y-113792000D03*
X157428000Y-113792000D03*
X154888000Y-113792000D03*
X152348000Y-113792000D03*
X149808000Y-113792000D03*
X147268000Y-113792000D03*
X144728000Y-113792000D03*
X142188000Y-113792000D03*
X139648000Y-113792000D03*
%TD*%
D12*
%TO.C,TP2*%
X151892000Y-85598000D03*
%TD*%
D17*
%TO.C,R10*%
X176085000Y-78740000D03*
X174435000Y-78740000D03*
%TD*%
D18*
%TO.C,J4*%
X159737596Y-80010000D03*
D19*
X157197596Y-80010000D03*
%TD*%
D20*
%TO.C,H2*%
X182880000Y-109220000D03*
D21*
X182880000Y-109220000D03*
%TD*%
D22*
%TO.C,R6*%
X148336000Y-94551000D03*
X148336000Y-92901000D03*
%TD*%
D12*
%TO.C,TP3*%
X172720000Y-81026000D03*
%TD*%
D13*
%TO.C,R5*%
X153353000Y-97536000D03*
X155003000Y-97536000D03*
%TD*%
D23*
%TO.C,D3*%
X143067054Y-84503666D03*
X144942054Y-84503666D03*
%TD*%
D24*
%TO.C,U3*%
X165506000Y-94474000D03*
X165506000Y-96774000D03*
D25*
X171806000Y-96774000D03*
D24*
X165506000Y-99074000D03*
%TD*%
D26*
%TO.C,C1*%
X153448336Y-99573820D03*
X155348336Y-99573820D03*
%TD*%
D13*
%TO.C,R7*%
X145733000Y-98806000D03*
X147383000Y-98806000D03*
%TD*%
D27*
%TO.C,D1*%
X155830000Y-84774016D03*
X159130000Y-84774016D03*
%TD*%
D22*
%TO.C,R9*%
X152400000Y-94551000D03*
X152400000Y-92901000D03*
%TD*%
D21*
%TO.C,H1*%
X182705682Y-80264000D03*
D20*
X182705682Y-80264000D03*
%TD*%
D13*
%TO.C,R2*%
X178499000Y-112014000D03*
X180149000Y-112014000D03*
%TD*%
D14*
%TO.C,C5*%
X163068000Y-95946000D03*
X163068000Y-94046000D03*
%TD*%
D28*
%TO.C,J2*%
X158163000Y-119070000D03*
X160163000Y-119070000D03*
X162163000Y-119070000D03*
X164163000Y-119070000D03*
D29*
X155813000Y-124820000D03*
X166513000Y-124820000D03*
%TD*%
D30*
%TO.C,SW1*%
X163453596Y-79180024D03*
X170753596Y-79180024D03*
X163453596Y-76970024D03*
D31*
X165603596Y-78070024D03*
X168603596Y-78070024D03*
D30*
X170753596Y-76970024D03*
D32*
X169353596Y-79830024D03*
X166353596Y-79830024D03*
X164853596Y-79830024D03*
%TD*%
D21*
%TO.C,H3*%
X142240000Y-109220000D03*
D20*
X142240000Y-109220000D03*
%TD*%
D28*
%TO.C,J1*%
X171498000Y-119070000D03*
X173498000Y-119070000D03*
X175498000Y-119070000D03*
X177498000Y-119070000D03*
D29*
X179848000Y-124820000D03*
X169148000Y-124820000D03*
%TD*%
D33*
%TO.C,R3*%
X151130000Y-100521000D03*
X151130000Y-102171000D03*
%TD*%
D34*
%TO.C,C6*%
X182867898Y-123965712D03*
X184417898Y-123965712D03*
%TD*%
D35*
%TO.C,U2*%
X151118000Y-96098500D03*
X150618000Y-96098500D03*
X150118000Y-96098500D03*
X149618000Y-96098500D03*
D36*
X148930500Y-96786000D03*
X148930500Y-97286000D03*
X148930500Y-97786000D03*
X148930500Y-98286000D03*
D35*
X149618000Y-98973500D03*
X150118000Y-98973500D03*
X150618000Y-98973500D03*
X151118000Y-98973500D03*
D36*
X151805500Y-98286000D03*
X151805500Y-97786000D03*
X151805500Y-97286000D03*
X151805500Y-96786000D03*
D37*
X150368000Y-97536000D03*
%TD*%
D38*
%TO.C,D4*%
X172691596Y-77241524D03*
X172691596Y-79116524D03*
%TD*%
D23*
%TO.C,D2*%
X139511054Y-84503666D03*
X141386054Y-84503666D03*
%TD*%
D28*
%TO.C,J3*%
X144828000Y-119070000D03*
X146828000Y-119070000D03*
X148828000Y-119070000D03*
X150828000Y-119070000D03*
D29*
X153178000Y-124820000D03*
X142478000Y-124820000D03*
%TD*%
D14*
%TO.C,C4*%
X163068000Y-99502000D03*
X163068000Y-97602000D03*
%TD*%
D39*
%TO.C,U1*%
X183942000Y-120741000D03*
X183342000Y-120741000D03*
D40*
X182717000Y-121066000D03*
X182717000Y-121666000D03*
X182717000Y-122266000D03*
D39*
X183342000Y-122591000D03*
X183942000Y-122591000D03*
D40*
X184567000Y-122266000D03*
X184567000Y-121666000D03*
X184567000Y-121066000D03*
%TD*%
D13*
%TO.C,R4*%
X153353000Y-96012000D03*
X155003000Y-96012000D03*
%TD*%
D21*
%TO.C,H4*%
X142240000Y-80264000D03*
D20*
X142240000Y-80264000D03*
%TD*%
M02*
